<svg width="128" height="128" viewBox="0 0 128 128" fill="none" xmlns="http://www.w3.org/2000/svg">
<rect width="128" height="128" rx="64" fill="black"/>
<path d="M62.2401 87.7933C58.1978 87.7933 54.7412 86.8489 51.8701 84.96C49.0367 83.0333 46.8645 80.3511 45.3534 76.9133C43.8423 73.4378 43.0867 69.3956 43.0867 64.7867C43.0867 60.1022 43.8612 56.06 45.4101 52.66C46.9967 49.26 49.3012 46.6344 52.3234 44.7833C55.3834 42.9322 59.1423 42.0067 63.6001 42.0067C67.4534 42.0067 70.6834 42.6678 73.2901 43.99C75.8967 45.3122 77.9367 47.1444 79.4101 49.4867C80.8834 51.7911 81.8278 54.4733 82.2434 57.5333H73.1767C72.7234 54.8133 71.6845 52.7356 70.0601 51.3C68.4356 49.8644 66.2445 49.1467 63.4867 49.1467C59.8223 49.1467 57.0834 50.5256 55.2701 53.2833C53.4945 56.0033 52.6067 59.8567 52.6067 64.8433C52.6067 69.9433 53.5323 73.8722 55.3834 76.63C57.2723 79.3878 60.0489 80.7667 63.7134 80.7667C66.7734 80.7667 69.1345 79.8789 70.7967 78.1033C72.4589 76.29 73.3845 73.8533 73.5734 70.7933H61.1067V63.9367L82.3001 63.9367V87H75.4434V81.9H74.0834C73.3278 83.4111 72.0245 84.7711 70.1734 85.98C68.3601 87.1889 65.7156 87.7933 62.2401 87.7933Z" fill="white"/>
</svg>
